<svg xmlns="http://www.w3.org/2000/svg" viewBox="0 0 175.26 119.5"><defs><style>.cls-1{opacity:0.2;}.cls-2{fill:#7f3f98;}</style></defs><g id="Layer_2" data-name="Layer 2"><g id="Layer_1-2" data-name="Layer 1"><g class="cls-1"><path class="cls-2" d="M144.08,8.89q-9,16-18.05,32l.45.65L157.66,30l.37.5c-7.21,8.5-14.41,17-22.07,26.06l39.28,6.59,0,.6L127,69.92,137.14,82l-29.7-.19c-.31,4.21-.61,8.24-.94,12.64L86,90.12c-2.67,9.72-5.26,19.19-8,29.38-1.36-2.17-2.44-3.8-3.42-5.49-2.58-4.48-5.24-8.91-7.6-13.5-1.19-2.33-2.27-2.59-4.48-1.29-11,6.48-22.11,12.82-33.18,19.2a7.33,7.33,0,0,1-3,1L50.42,90l-.27-.67-25.8,5.77L39.87,77.55,0,71.8v-.74l46.57-9.69-12-23.61,28.75,5.75C64.3,28.92,65.21,14.6,66.11.27L66.77,0,86.18,30.47C91.91,21.94,97.36,13.82,102.8,5.7l.6.09c.28,9.41.56,18.82.86,28.86L143.63,8.39Z"/></g></g></g></svg>