<svg xmlns="http://www.w3.org/2000/svg" viewBox="0 0 15.06 15.06"><defs><style>.cls-1{fill:#ad782b;opacity:0.25;}.cls-2,.cls-3{fill:#0a4466;stroke:#0a4466;stroke-width:0.28px;}.cls-2{stroke-miterlimit:10;}.cls-3{stroke-linecap:square;stroke-linejoin:bevel;}</style></defs><g id="Layer_2" data-name="Layer 2"><g id="Layer_2-2" data-name="Layer 2"><circle class="cls-1" cx="7.53" cy="7.53" r="7.53"/><path class="cls-2" d="M3.5,11.6c.1-.31.2-.6.29-.89s.27-.79.4-1.18a.12.12,0,0,0,0-.1,3.84,3.84,0,0,1-.52-1.57,4,4,0,1,1,2.07,3.07.12.12,0,0,0-.1,0l-2.06.65Zm1-1,.09,0,1.12-.36a.14.14,0,0,1,.11,0,3.17,3.17,0,0,0,2.22.48,3.18,3.18,0,0,0,2.38-1.56,3.19,3.19,0,0,0,.42-2.32A3.3,3.3,0,0,0,5.91,4.59,3.18,3.18,0,0,0,4.3,7.35a3.14,3.14,0,0,0,.58,2,.11.11,0,0,1,0,.12l-.36,1.08Z"/><path class="cls-3" d="M5.62,6.47A1.12,1.12,0,0,1,6,5.59a.31.31,0,0,1,.29-.09h.16a.18.18,0,0,1,.19.12l.1.27L7,6.45a.21.21,0,0,1,0,.19L6.71,7c-.09.1-.1.13,0,.25A2.74,2.74,0,0,0,7.93,8.4c.21.09.21.1.36-.07L8.56,8a.14.14,0,0,1,.17,0L8.9,8l.66.35a.18.18,0,0,1,.1.17.77.77,0,0,1-.39.68,1.11,1.11,0,0,1-.94.1,4.1,4.1,0,0,1-1.21-.58,4,4,0,0,1-.82-.83,4.28,4.28,0,0,1-.54-.86A1.55,1.55,0,0,1,5.62,6.47Z"/></g></g></svg>