<svg xmlns="http://www.w3.org/2000/svg" viewBox="0 0 76.69 14.33"><defs><style>.cls-1{fill:#ad782b;opacity:0.25;}.cls-2{fill:#7f3f98;}.cls-3{fill:#0a4466;}</style></defs><g id="Layer_2" data-name="Layer 2"><g id="Layer_2-2" data-name="Layer 2"><rect class="cls-1" width="76.69" height="14.33" rx="6.82"/><path class="cls-2" d="M16.39,9.32a2.28,2.28,0,0,0,1,.23c1.24,0,1.89-1.17,2-2.34h0a1.86,1.86,0,0,1-1.5.67,2.11,2.11,0,0,1-2.15-2.21A2.14,2.14,0,0,1,17.92,3.4c1.44,0,2.54,1.23,2.54,3.13s-1,3.9-3.06,3.9a3,3,0,0,1-1.32-.28Zm3.06-3.2a1.8,1.8,0,0,0-1.52-1.85,1.27,1.27,0,0,0-1.26,1.4,1.33,1.33,0,0,0,1.4,1.41C18.83,7.08,19.45,6.61,19.45,6.12Z"/><path class="cls-2" d="M21.26,9.32h1v1h-1Z"/><path class="cls-2" d="M24,9.32a2.35,2.35,0,0,0,1,.23c1.24,0,1.89-1.17,2-2.34h0a1.86,1.86,0,0,1-1.5.67,2.11,2.11,0,0,1-2.15-2.21A2.14,2.14,0,0,1,25.56,3.4C27,3.4,28.1,4.63,28.1,6.53s-1,3.9-3.06,3.9a3,3,0,0,1-1.32-.28Zm3.07-3.2a1.8,1.8,0,0,0-1.53-1.85,1.27,1.27,0,0,0-1.25,1.4,1.33,1.33,0,0,0,1.4,1.41C26.47,7.08,27.09,6.61,27.09,6.12Z"/><path class="cls-2" d="M28.78,7.89l3.06-4.37h1.1V7.68H34v.83H32.94v1.8H32V8.51H28.78ZM32,5.34c0-.3,0-.69,0-.69h0a4.77,4.77,0,0,1-.35.57l-1.48,2a4.4,4.4,0,0,1-.35.43v0s.28,0,.57,0H32Z"/><path class="cls-2" d="M34.66,7.3c0-1.77,1-3.9,3.07-3.9A2.94,2.94,0,0,1,39,3.68l-.3.82a2.35,2.35,0,0,0-1-.23c-1.24,0-1.89,1.17-2,2.33h0a1.88,1.88,0,0,1,1.5-.66,2.11,2.11,0,0,1,2.15,2.21,2.14,2.14,0,0,1-2.18,2.28C35.76,10.43,34.66,9.19,34.66,7.3ZM37.2,9.55a1.26,1.26,0,0,0,1.25-1.4,1.32,1.32,0,0,0-1.4-1.4c-.76,0-1.37.46-1.37,1A1.79,1.79,0,0,0,37.2,9.55Z"/><path class="cls-2" d="M43.73,5.36a1.08,1.08,0,0,0-1.19-1.08c-.61,0-1,.31-1,.65v.3H40.6V4.65c0-.89,1.19-1.25,2-1.25a2,2,0,0,1,2.14,1.95c0,2.34-3.45,2.38-3.45,4,0,.13.08.18.25.18h2.41a.19.19,0,0,0,.21-.21V8.84H45v.85c0,.44-.18.62-.62.62H40.92c-.53,0-.65-.23-.65-.78C40.27,7,43.73,7.2,43.73,5.36Z"/><path class="cls-2" d="M46,7.15h2.81V8H46Z"/><path class="cls-2" d="M50.41,8.77A2.06,2.06,0,0,0,52,9.52a1.37,1.37,0,0,0,1.46-1.36,1.46,1.46,0,0,0-1.61-1.38,2.64,2.64,0,0,0-1.29.34l-.4-.18.27-2.81c0-.43.19-.61.62-.61h2.37c.43,0,.61.18.61.61V5h-.87V4.55A.19.19,0,0,0,53,4.34H51.52c-.13,0-.19.07-.21.21L51.17,5.8a2.38,2.38,0,0,1,0,.35h0A2,2,0,0,1,52,6a2.26,2.26,0,0,1,2.43,2.23A2.3,2.3,0,0,1,52,10.43a2.72,2.72,0,0,1-2.11-1Z"/><path class="cls-2" d="M55.32,7.89l3.06-4.37h1.1V7.68h1.06v.83H59.48v1.8h-1V8.51h-3.2Zm3.2-2.55c0-.3,0-.69,0-.69h0a5.68,5.68,0,0,1-.34.57l-1.48,2a5.49,5.49,0,0,1-.36.43v0s.28,0,.58,0h1.58Z"/><path class="cls-2" d="M61.85,8.77a2.06,2.06,0,0,0,1.59.75A1.37,1.37,0,0,0,64.9,8.16a1.46,1.46,0,0,0-1.61-1.38A2.64,2.64,0,0,0,62,7.12l-.4-.18.27-2.81c0-.43.18-.61.62-.61h2.37c.43,0,.61.18.61.61V5H64.6V4.55a.19.19,0,0,0-.22-.21H63c-.14,0-.19.07-.21.21L62.61,5.8a3.37,3.37,0,0,1,0,.35h0a2,2,0,0,1,.88-.2,2.26,2.26,0,0,1,2.43,2.23,2.3,2.3,0,0,1-2.45,2.25,2.69,2.69,0,0,1-2.11-1Z"/><path class="cls-2" d="M67.53,8.77a2.06,2.06,0,0,0,1.59.75,1.38,1.38,0,0,0,1.46-1.36A1.47,1.47,0,0,0,69,6.78a2.64,2.64,0,0,0-1.29.34l-.39-.18.27-2.81c0-.43.18-.61.61-.61h2.37c.43,0,.62.18.62.61V5h-.88V4.55a.19.19,0,0,0-.21-.21H68.64c-.14,0-.2.07-.22.21L68.29,5.8a3.37,3.37,0,0,1-.05.35h0a2,2,0,0,1,.88-.2,2.25,2.25,0,0,1,2.42,2.23,2.3,2.3,0,0,1-2.44,2.25,2.69,2.69,0,0,1-2.11-1Z"/><path class="cls-3" d="M5.13,11.23l.3-.89.39-1.17a.11.11,0,0,0,0-.11A3.79,3.79,0,0,1,5.3,7.49a4,4,0,0,1,7.17-2.72,3.89,3.89,0,0,1,.72,2.08,4,4,0,0,1-5.83,3.71.16.16,0,0,0-.1,0l-2,.66Zm1-1,.08,0,1.13-.36a.09.09,0,0,1,.11,0,3.27,3.27,0,0,0,2.22.48,3.22,3.22,0,0,0,2.37-1.56,3.21,3.21,0,0,0,.43-2.32A3.3,3.3,0,0,0,7.55,4.22,3.21,3.21,0,0,0,5.93,7a3.13,3.13,0,0,0,.59,2,.15.15,0,0,1,0,.13c-.13.36-.25.72-.37,1.08A.45.45,0,0,0,6.15,10.23Z"/><path class="cls-3" d="M7.26,6.11a1.16,1.16,0,0,1,.4-.89A.41.41,0,0,1,8,5.13h.16a.17.17,0,0,1,.18.12l.11.27c.06.19.13.37.2.56a.17.17,0,0,1,0,.18,2.6,2.6,0,0,1-.26.32c-.08.1-.09.13,0,.24A2.72,2.72,0,0,0,9.57,8c.21.1.21.1.36-.07l.27-.31c.05-.06.09-.08.16-.05l.18.08L11.2,8a.15.15,0,0,1,.09.17.77.77,0,0,1-.39.68A1.11,1.11,0,0,1,10,9,4.65,4.65,0,0,1,8.75,8.4,4.72,4.72,0,0,1,7.4,6.7,1.35,1.35,0,0,1,7.26,6.11Z"/></g></g></svg>